# xmcd CD database file
#
# Track frame offsets:
#	187
#	25085
#	54927
#	61037
#	86292
#	100945
#	123405
#	140307
#	158080
#	181032
#	199310
#	238310
#
# Disc length: 3306 seconds
#
# Revision: 1
# Processed by: cddbd v1.5.2PL0 Copyright (c) Steve Scherf et al.
# Submitted via: CDex 1.51
#
DISCID=920ce80c
DTITLE=Genesis - Duke
DYEAR=1980
DGENRE=Progressive Rock
TTITLE0=Behind The Lines
TTITLE1=Duchess
TTITLE2=Guide Vocal
TTITLE3=Man Of Our Times
TTITLE4=Misunderstanding
TTITLE5=Heathaze
TTITLE6=Turn It On Again
TTITLE7=Alone Tonight
TTITLE8=Cul-De-Sac
TTITLE9=Please Don't Ask
TTITLE10=Duke's Travels
TTITLE11=Duke's End
EXTD=YEAR: 1980
EXTT0=
EXTT1=
EXTT2=
EXTT3=
EXTT4=
EXTT5=
EXTT6=
EXTT7=
EXTT8=
EXTT9=
EXTT10=
EXTT11=
PLAYORDER=
